<svg width="105" height="199" viewBox="0 0 105 199" fill="none" xmlns="http://www.w3.org/2000/svg">
<mask id="mask0" mask-type="alpha" maskUnits="userSpaceOnUse" x="0" y="108" width="105" height="91">
<rect x="104.762" y="108.534" width="89.8843" height="104.762" transform="rotate(90 104.762 108.534)" fill="#EAC58D"/>
</mask>
<g mask="url(#mask0)">
<circle cx="10.5374" cy="139.528" r="1.85967" fill="#EAC58D"/>
<circle cx="10.5374" cy="111.013" r="1.85967" fill="#EAC58D"/>
<circle cx="67.5672" cy="139.528" r="1.85967" fill="#EAC58D"/>
<circle cx="67.5672" cy="111.013" r="1.85967" fill="#EAC58D"/>
<circle cx="39.053" cy="139.528" r="1.85967" fill="#EAC58D"/>
<circle cx="39.053" cy="111.013" r="1.85967" fill="#EAC58D"/>
<circle cx="96.0818" cy="139.528" r="1.85967" fill="#EAC58D"/>
<circle cx="96.0818" cy="111.013" r="1.85967" fill="#EAC58D"/>
<circle cx="10.5364" cy="196.558" r="1.85967" fill="#EAC58D"/>
<circle cx="10.5364" cy="168.043" r="1.85967" fill="#EAC58D"/>
<circle cx="67.5662" cy="196.558" r="1.85967" fill="#EAC58D"/>
<circle cx="67.5662" cy="168.043" r="1.85967" fill="#EAC58D"/>
<circle cx="39.0521" cy="196.558" r="1.85967" fill="#EAC58D"/>
<circle cx="39.0521" cy="168.043" r="1.85967" fill="#EAC58D"/>
<circle cx="96.0809" cy="196.558" r="1.85967" fill="#EAC58D"/>
<circle cx="96.0809" cy="168.043" r="1.85967" fill="#EAC58D"/>
</g>
<mask id="mask1" mask-type="alpha" maskUnits="userSpaceOnUse" x="0" y="0" width="105" height="90">
<rect x="104.762" width="89.8843" height="104.762" transform="rotate(90 104.762 0)" fill="#EAC58D"/>
</mask>
<g mask="url(#mask1)">
<circle cx="10.5374" cy="30.994" r="1.85967" fill="#EAC58D"/>
<circle cx="10.5374" cy="2.47943" r="1.85967" fill="#EAC58D"/>
<circle cx="67.5672" cy="30.994" r="1.85967" fill="#EAC58D"/>
<circle cx="67.5672" cy="2.47943" r="1.85967" fill="#EAC58D"/>
<circle cx="39.053" cy="30.994" r="1.85967" fill="#EAC58D"/>
<circle cx="39.053" cy="2.47943" r="1.85967" fill="#EAC58D"/>
<circle cx="96.0818" cy="30.994" r="1.85967" fill="#EAC58D"/>
<circle cx="96.0818" cy="2.47943" r="1.85967" fill="#EAC58D"/>
<circle cx="10.5364" cy="88.0235" r="1.85967" fill="#EAC58D"/>
<circle cx="10.5364" cy="59.509" r="1.85967" fill="#EAC58D"/>
<circle cx="67.5662" cy="88.0235" r="1.85967" fill="#EAC58D"/>
<circle cx="67.5662" cy="59.509" r="1.85967" fill="#EAC58D"/>
<circle cx="39.0521" cy="88.0235" r="1.85967" fill="#EAC58D"/>
<circle cx="39.0521" cy="59.509" r="1.85967" fill="#EAC58D"/>
<circle cx="96.0809" cy="88.0235" r="1.85967" fill="#EAC58D"/>
<circle cx="96.0809" cy="59.509" r="1.85967" fill="#EAC58D"/>
</g>
</svg>
