<svg width="199" height="220" viewBox="0 0 199 220" fill="none" xmlns="http://www.w3.org/2000/svg">
<g opacity="0.5">
<mask id="mask0" mask-type="alpha" maskUnits="userSpaceOnUse" x="108" y="115" width="91" height="105">
<rect x="108.534" y="115.238" width="89.8843" height="104.762" fill="#222222"/>
</mask>
<g mask="url(#mask0)">
<circle cx="139.528" cy="209.462" r="1.85967" transform="rotate(-90 139.528 209.462)" fill="#222222"/>
<circle cx="111.013" cy="209.462" r="1.85967" transform="rotate(-90 111.013 209.462)" fill="#222222"/>
<circle cx="139.528" cy="152.432" r="1.85967" transform="rotate(-90 139.528 152.432)" fill="#222222"/>
<circle cx="111.013" cy="152.432" r="1.85967" transform="rotate(-90 111.013 152.432)" fill="#222222"/>
<circle cx="139.528" cy="180.946" r="1.85967" transform="rotate(-90 139.528 180.946)" fill="#222222"/>
<circle cx="111.013" cy="180.946" r="1.85967" transform="rotate(-90 111.013 180.946)" fill="#222222"/>
<circle cx="139.528" cy="123.917" r="1.85967" transform="rotate(-90 139.528 123.917)" fill="#222222"/>
<circle cx="111.013" cy="123.917" r="1.85967" transform="rotate(-90 111.013 123.917)" fill="#222222"/>
<circle cx="196.557" cy="209.463" r="1.85967" transform="rotate(-90 196.557 209.463)" fill="#222222"/>
<circle cx="168.043" cy="209.463" r="1.85967" transform="rotate(-90 168.043 209.463)" fill="#222222"/>
<circle cx="196.557" cy="152.433" r="1.85967" transform="rotate(-90 196.557 152.433)" fill="#222222"/>
<circle cx="168.043" cy="152.433" r="1.85967" transform="rotate(-90 168.043 152.433)" fill="#222222"/>
<circle cx="196.557" cy="180.948" r="1.85967" transform="rotate(-90 196.557 180.948)" fill="#222222"/>
<circle cx="168.043" cy="180.948" r="1.85967" transform="rotate(-90 168.043 180.948)" fill="#222222"/>
<circle cx="196.557" cy="123.918" r="1.85967" transform="rotate(-90 196.557 123.918)" fill="#222222"/>
<circle cx="168.043" cy="123.918" r="1.85967" transform="rotate(-90 168.043 123.918)" fill="#222222"/>
</g>
<mask id="mask1" mask-type="alpha" maskUnits="userSpaceOnUse" x="108" y="0" width="91" height="105">
<rect x="108.534" width="89.8843" height="104.762" fill="#222222"/>
</mask>
<g mask="url(#mask1)">
<circle cx="139.528" cy="94.2228" r="1.85967" transform="rotate(-90 139.528 94.2228)" fill="#222222"/>
<circle cx="111.013" cy="94.2228" r="1.85967" transform="rotate(-90 111.013 94.2228)" fill="#222222"/>
<circle cx="139.528" cy="37.1928" r="1.85967" transform="rotate(-90 139.528 37.1928)" fill="#222222"/>
<circle cx="111.013" cy="37.1928" r="1.85967" transform="rotate(-90 111.013 37.1928)" fill="#222222"/>
<circle cx="139.528" cy="65.7075" r="1.85967" transform="rotate(-90 139.528 65.7075)" fill="#222222"/>
<circle cx="111.013" cy="65.7075" r="1.85967" transform="rotate(-90 111.013 65.7075)" fill="#222222"/>
<circle cx="139.528" cy="8.67817" r="1.85967" transform="rotate(-90 139.528 8.67817)" fill="#222222"/>
<circle cx="111.013" cy="8.67817" r="1.85967" transform="rotate(-90 111.013 8.67817)" fill="#222222"/>
<circle cx="196.557" cy="94.2233" r="1.85967" transform="rotate(-90 196.557 94.2233)" fill="#222222"/>
<circle cx="168.043" cy="94.2233" r="1.85967" transform="rotate(-90 168.043 94.2233)" fill="#222222"/>
<circle cx="196.557" cy="37.1933" r="1.85967" transform="rotate(-90 196.557 37.1933)" fill="#222222"/>
<circle cx="168.043" cy="37.1933" r="1.85967" transform="rotate(-90 168.043 37.1933)" fill="#222222"/>
<circle cx="196.557" cy="65.708" r="1.85967" transform="rotate(-90 196.557 65.708)" fill="#222222"/>
<circle cx="168.043" cy="65.708" r="1.85967" transform="rotate(-90 168.043 65.708)" fill="#222222"/>
<circle cx="196.557" cy="8.67866" r="1.85967" transform="rotate(-90 196.557 8.67866)" fill="#222222"/>
<circle cx="168.043" cy="8.67866" r="1.85967" transform="rotate(-90 168.043 8.67866)" fill="#222222"/>
</g>
<mask id="mask2" mask-type="alpha" maskUnits="userSpaceOnUse" x="0" y="115" width="90" height="105">
<rect y="115.238" width="89.8843" height="104.762" fill="#222222"/>
</mask>
<g mask="url(#mask2)">
<circle cx="30.994" cy="209.462" r="1.85967" transform="rotate(-90 30.994 209.462)" fill="#222222"/>
<circle cx="2.4793" cy="209.462" r="1.85967" transform="rotate(-90 2.4793 209.462)" fill="#222222"/>
<circle cx="30.994" cy="152.432" r="1.85967" transform="rotate(-90 30.994 152.432)" fill="#222222"/>
<circle cx="2.4793" cy="152.432" r="1.85967" transform="rotate(-90 2.4793 152.432)" fill="#222222"/>
<circle cx="30.994" cy="180.946" r="1.85967" transform="rotate(-90 30.994 180.946)" fill="#222222"/>
<circle cx="2.4793" cy="180.946" r="1.85967" transform="rotate(-90 2.4793 180.946)" fill="#222222"/>
<circle cx="30.994" cy="123.917" r="1.85967" transform="rotate(-90 30.994 123.917)" fill="#222222"/>
<circle cx="2.4793" cy="123.917" r="1.85967" transform="rotate(-90 2.4793 123.917)" fill="#222222"/>
<circle cx="88.0237" cy="209.463" r="1.85967" transform="rotate(-90 88.0237 209.463)" fill="#222222"/>
<circle cx="59.5091" cy="209.463" r="1.85967" transform="rotate(-90 59.5091 209.463)" fill="#222222"/>
<circle cx="88.0237" cy="152.433" r="1.85967" transform="rotate(-90 88.0237 152.433)" fill="#222222"/>
<circle cx="59.5091" cy="152.433" r="1.85967" transform="rotate(-90 59.5091 152.433)" fill="#222222"/>
<circle cx="88.0237" cy="180.948" r="1.85967" transform="rotate(-90 88.0237 180.948)" fill="#222222"/>
<circle cx="59.5091" cy="180.948" r="1.85967" transform="rotate(-90 59.5091 180.948)" fill="#222222"/>
<circle cx="88.0237" cy="123.918" r="1.85967" transform="rotate(-90 88.0237 123.918)" fill="#222222"/>
<circle cx="59.5091" cy="123.918" r="1.85967" transform="rotate(-90 59.5091 123.918)" fill="#222222"/>
</g>
</g>
</svg>
