<svg width="220" height="199" viewBox="0 0 220 199" fill="none" xmlns="http://www.w3.org/2000/svg">
<mask id="mask0" mask-type="alpha" maskUnits="userSpaceOnUse" x="115" y="0" width="105" height="90">
<rect x="115.238" y="89.8843" width="89.8843" height="104.762" transform="rotate(-90 115.238 89.8843)" fill="#EAC58D"/>
</mask>
<g mask="url(#mask0)">
<circle cx="209.462" cy="58.8903" r="1.85967" transform="rotate(180 209.462 58.8903)" fill="#EAC58D"/>
<circle cx="209.462" cy="87.405" r="1.85967" transform="rotate(180 209.462 87.405)" fill="#EAC58D"/>
<circle cx="152.432" cy="58.8903" r="1.85967" transform="rotate(180 152.432 58.8903)" fill="#EAC58D"/>
<circle cx="152.432" cy="87.405" r="1.85967" transform="rotate(180 152.432 87.405)" fill="#EAC58D"/>
<circle cx="180.946" cy="58.8903" r="1.85967" transform="rotate(180 180.946 58.8903)" fill="#EAC58D"/>
<circle cx="180.946" cy="87.405" r="1.85967" transform="rotate(180 180.946 87.405)" fill="#EAC58D"/>
<circle cx="123.917" cy="58.8903" r="1.85967" transform="rotate(180 123.917 58.8903)" fill="#EAC58D"/>
<circle cx="123.917" cy="87.405" r="1.85967" transform="rotate(180 123.917 87.405)" fill="#EAC58D"/>
<circle cx="209.463" cy="1.8603" r="1.85967" transform="rotate(180 209.463 1.8603)" fill="#EAC58D"/>
<circle cx="209.463" cy="30.3749" r="1.85967" transform="rotate(180 209.463 30.3749)" fill="#EAC58D"/>
<circle cx="152.433" cy="1.8603" r="1.85967" transform="rotate(180 152.433 1.8603)" fill="#EAC58D"/>
<circle cx="152.433" cy="30.3749" r="1.85967" transform="rotate(180 152.433 30.3749)" fill="#EAC58D"/>
<circle cx="180.947" cy="1.8603" r="1.85967" transform="rotate(180 180.947 1.8603)" fill="#EAC58D"/>
<circle cx="180.947" cy="30.3749" r="1.85967" transform="rotate(180 180.947 30.3749)" fill="#EAC58D"/>
<circle cx="123.918" cy="1.8603" r="1.85967" transform="rotate(180 123.918 1.8603)" fill="#EAC58D"/>
<circle cx="123.918" cy="30.3749" r="1.85967" transform="rotate(180 123.918 30.3749)" fill="#EAC58D"/>
</g>
<mask id="mask1" mask-type="alpha" maskUnits="userSpaceOnUse" x="0" y="0" width="105" height="90">
<rect y="89.8843" width="89.8843" height="104.762" transform="rotate(-90 0 89.8843)" fill="#EAC58D"/>
</mask>
<g mask="url(#mask1)">
<circle cx="94.2228" cy="58.8903" r="1.85967" transform="rotate(180 94.2228 58.8903)" fill="#EAC58D"/>
<circle cx="94.2228" cy="87.405" r="1.85967" transform="rotate(180 94.2228 87.405)" fill="#EAC58D"/>
<circle cx="37.1931" cy="58.8903" r="1.85967" transform="rotate(180 37.1931 58.8903)" fill="#EAC58D"/>
<circle cx="37.1931" cy="87.405" r="1.85967" transform="rotate(180 37.1931 87.405)" fill="#EAC58D"/>
<circle cx="65.7072" cy="58.8903" r="1.85967" transform="rotate(180 65.7072 58.8903)" fill="#EAC58D"/>
<circle cx="65.7072" cy="87.405" r="1.85967" transform="rotate(180 65.7072 87.405)" fill="#EAC58D"/>
<circle cx="8.67841" cy="58.8903" r="1.85967" transform="rotate(180 8.67841 58.8903)" fill="#EAC58D"/>
<circle cx="8.67841" cy="87.405" r="1.85967" transform="rotate(180 8.67841 87.405)" fill="#EAC58D"/>
<circle cx="94.2233" cy="1.8603" r="1.85967" transform="rotate(180 94.2233 1.8603)" fill="#EAC58D"/>
<circle cx="94.2233" cy="30.3749" r="1.85967" transform="rotate(180 94.2233 30.3749)" fill="#EAC58D"/>
<circle cx="37.1935" cy="1.8603" r="1.85967" transform="rotate(180 37.1935 1.8603)" fill="#EAC58D"/>
<circle cx="37.1935" cy="30.3749" r="1.85967" transform="rotate(180 37.1935 30.3749)" fill="#EAC58D"/>
<circle cx="65.7077" cy="1.8603" r="1.85967" transform="rotate(180 65.7077 1.8603)" fill="#EAC58D"/>
<circle cx="65.7077" cy="30.3749" r="1.85967" transform="rotate(180 65.7077 30.3749)" fill="#EAC58D"/>
<circle cx="8.6789" cy="1.8603" r="1.85967" transform="rotate(180 8.6789 1.8603)" fill="#EAC58D"/>
<circle cx="8.6789" cy="30.3749" r="1.85967" transform="rotate(180 8.6789 30.3749)" fill="#EAC58D"/>
</g>
<mask id="mask2" mask-type="alpha" maskUnits="userSpaceOnUse" x="115" y="108" width="105" height="91">
<rect x="115.238" y="198.418" width="89.8843" height="104.762" transform="rotate(-90 115.238 198.418)" fill="#EAC58D"/>
</mask>
<g mask="url(#mask2)">
<circle cx="209.462" cy="167.424" r="1.85967" transform="rotate(180 209.462 167.424)" fill="#EAC58D"/>
<circle cx="209.462" cy="195.938" r="1.85967" transform="rotate(180 209.462 195.938)" fill="#EAC58D"/>
<circle cx="152.432" cy="167.424" r="1.85967" transform="rotate(180 152.432 167.424)" fill="#EAC58D"/>
<circle cx="152.432" cy="195.938" r="1.85967" transform="rotate(180 152.432 195.938)" fill="#EAC58D"/>
<circle cx="180.946" cy="167.424" r="1.85967" transform="rotate(180 180.946 167.424)" fill="#EAC58D"/>
<circle cx="180.946" cy="195.938" r="1.85967" transform="rotate(180 180.946 195.938)" fill="#EAC58D"/>
<circle cx="123.917" cy="167.424" r="1.85967" transform="rotate(180 123.917 167.424)" fill="#EAC58D"/>
<circle cx="123.917" cy="195.938" r="1.85967" transform="rotate(180 123.917 195.938)" fill="#EAC58D"/>
<circle cx="209.463" cy="110.394" r="1.85967" transform="rotate(180 209.463 110.394)" fill="#EAC58D"/>
<circle cx="209.463" cy="138.909" r="1.85967" transform="rotate(180 209.463 138.909)" fill="#EAC58D"/>
<circle cx="152.433" cy="110.394" r="1.85967" transform="rotate(180 152.433 110.394)" fill="#EAC58D"/>
<circle cx="152.433" cy="138.909" r="1.85967" transform="rotate(180 152.433 138.909)" fill="#EAC58D"/>
<circle cx="180.947" cy="110.394" r="1.85967" transform="rotate(180 180.947 110.394)" fill="#EAC58D"/>
<circle cx="180.947" cy="138.909" r="1.85967" transform="rotate(180 180.947 138.909)" fill="#EAC58D"/>
<circle cx="123.918" cy="110.394" r="1.85967" transform="rotate(180 123.918 110.394)" fill="#EAC58D"/>
<circle cx="123.918" cy="138.909" r="1.85967" transform="rotate(180 123.918 138.909)" fill="#EAC58D"/>
</g>
</svg>
