<svg width="105" height="90" viewBox="0 0 105 90" fill="none" xmlns="http://www.w3.org/2000/svg">
<mask id="mask0" mask-type="alpha" maskUnits="userSpaceOnUse" x="0" y="0" width="105" height="90">
<rect x="104.762" width="89.8843" height="104.762" transform="rotate(90 104.762 0)" fill="#222222"/>
</mask>
<g mask="url(#mask0)">
<circle cx="10.5379" cy="30.9942" r="1.85967" fill="#222222"/>
<circle cx="10.5379" cy="2.47955" r="1.85967" fill="#222222"/>
<circle cx="67.5677" cy="30.9942" r="1.85967" fill="#222222"/>
<circle cx="67.5677" cy="2.47955" r="1.85967" fill="#222222"/>
<circle cx="39.0535" cy="30.9942" r="1.85967" fill="#222222"/>
<circle cx="39.0535" cy="2.47955" r="1.85967" fill="#222222"/>
<circle cx="96.0823" cy="30.9942" r="1.85967" fill="#222222"/>
<circle cx="96.0823" cy="2.47955" r="1.85967" fill="#222222"/>
<circle cx="10.5369" cy="88.0237" r="1.85967" fill="#222222"/>
<circle cx="10.5369" cy="59.5091" r="1.85967" fill="#222222"/>
<circle cx="67.5667" cy="88.0237" r="1.85967" fill="#222222"/>
<circle cx="67.5667" cy="59.5091" r="1.85967" fill="#222222"/>
<circle cx="39.0525" cy="88.0237" r="1.85967" fill="#222222"/>
<circle cx="39.0525" cy="59.5091" r="1.85967" fill="#222222"/>
<circle cx="96.0814" cy="88.0237" r="1.85967" fill="#222222"/>
<circle cx="96.0814" cy="59.5091" r="1.85967" fill="#222222"/>
</g>
</svg>
