<svg width="150" height="150" viewBox="0 0 150 150" fill="none" xmlns="http://www.w3.org/2000/svg">
<path opacity="0.1" d="M143.478 103.234H114.316V23.3297C114.316 10.4657 103.85 0 90.986 0H23.3297C10.4657 0 0 10.4657 0 23.3297V29.1622C0 32.3834 2.61118 34.9946 5.83244 34.9946H17.4973V125.981C17.4973 138.845 27.963 149.31 40.827 149.31H125.981C138.845 149.31 149.31 138.845 149.31 125.981V109.067C149.31 105.845 146.699 103.234 143.478 103.234ZM11.6649 23.3297C11.6649 16.8977 16.8977 11.6649 23.3297 11.6649H70.7871C68.7968 15.0981 67.6562 19.0834 67.6562 23.3297H11.6649ZM40.827 137.645C34.395 137.645 29.1622 132.413 29.1622 125.981V34.9946H73.4887C76.7099 34.9946 79.3211 32.3834 79.3211 29.1622V23.3297C79.3211 16.8977 84.554 11.6649 90.986 11.6649C97.418 11.6649 102.651 16.8977 102.651 23.3297V125.981C102.651 130.228 103.798 134.211 105.79 137.645H40.827ZM137.645 125.981C137.645 132.413 132.413 137.645 125.981 137.645C119.549 137.645 114.316 132.413 114.316 125.981V114.899H137.645V125.981ZM90.986 55.7969C90.986 59.0181 88.3748 61.6293 85.1536 61.6293H46.6595C43.4382 61.6293 40.827 59.0181 40.827 55.7969C40.827 52.5756 43.4382 49.9644 46.6595 49.9644H85.1536C88.3748 49.9644 90.986 52.5756 90.986 55.7969ZM90.986 82.4318C90.986 85.6531 88.3748 88.2643 85.1536 88.2643H46.6595C43.4382 88.2643 40.827 85.6531 40.827 82.4318C40.827 79.2106 43.4382 76.5994 46.6595 76.5994H85.1536C88.3748 76.5994 90.986 79.2106 90.986 82.4318ZM71.739 109.067C71.739 112.288 69.1278 114.899 65.9065 114.899H46.6595C43.4382 114.899 40.827 112.288 40.827 109.067C40.827 105.845 43.4382 103.234 46.6595 103.234H65.9065C69.1278 103.234 71.739 105.845 71.739 109.067Z" fill="#222222"/>
</svg>
