<svg width="34" height="34" viewBox="0 0 34 34" fill="none" xmlns="http://www.w3.org/2000/svg">
<path d="M25.0862 8.53448H8.01724C7.30306 8.53448 6.72414 7.95556 6.72414 7.24138C6.72414 6.5272 7.30306 5.94828 8.01724 5.94828H25.0862C25.8004 5.94828 26.3793 6.5272 26.3793 7.24138C26.3793 7.95556 25.8004 8.53448 25.0862 8.53448ZM26.3793 13.9655C26.3793 13.2513 25.8004 12.6724 25.0862 12.6724H8.01724C7.30306 12.6724 6.72414 13.2513 6.72414 13.9655C6.72414 14.6797 7.30306 15.2586 8.01724 15.2586H25.0862C25.8004 15.2586 26.3793 14.6797 26.3793 13.9655ZM17.8448 20.6897C17.8448 19.9755 17.2659 19.3966 16.5517 19.3966H8.01724C7.30306 19.3966 6.72414 19.9755 6.72414 20.6897C6.72414 21.4038 7.30306 21.9828 8.01724 21.9828H16.5517C17.2659 21.9828 17.8448 21.4038 17.8448 20.6897ZM17.4661 32.7247L22.2597 27.931H31.8104C32.5245 27.931 33.1035 27.3521 33.1035 26.6379V1.2931C33.1035 0.578923 32.5245 0 31.8104 0H1.2931C0.578923 0 0 0.578923 0 1.2931V26.6379C0 27.3521 0.578923 27.931 1.2931 27.931H10.8437L15.6374 32.7247C16.1424 33.2297 16.9611 33.2297 17.4661 32.7247ZM2.58621 2.58621H30.5172V25.3448H21.7241C21.3812 25.3448 21.0522 25.4811 20.8098 25.7236L16.5517 29.9816L12.2937 25.7236C12.0512 25.4811 11.7222 25.3448 11.3793 25.3448H2.58621V2.58621Z" fill="#222222"/>
</svg>
