<svg width="8" height="6" viewBox="0 0 8 6" fill="none" xmlns="http://www.w3.org/2000/svg">
<path fill-rule="evenodd" clip-rule="evenodd" d="M3.71137 2.49712C3.1462 2.49712 0.234375 0.845898 0.234375 0.845898V0.588053C0.234375 0.268569 0.493666 0.00927734 0.813729 0.00927734H6.60901C6.92936 0.00927734 7.18865 0.268569 7.18865 0.588053L7.18402 0.877441C7.18402 0.877441 4.30375 2.49712 3.71137 2.49712Z" fill="#222222"/>
<path fill-rule="evenodd" clip-rule="evenodd" d="M3.71137 3.29342C4.33095 3.29342 7.18402 1.74609 7.18402 1.74609L7.18865 5.21875C7.18865 5.53823 6.92936 5.79752 6.60901 5.79752H0.813729C0.493956 5.79752 0.234375 5.53823 0.234375 5.21875L0.239005 1.74609C0.238716 1.74609 3.1462 3.29342 3.71137 3.29342Z" fill="#222222"/>
</svg>
