<svg width="15" height="11" viewBox="0 0 15 11" fill="none" xmlns="http://www.w3.org/2000/svg">
<path d="M14.9018 0.952637L10.6401 5.21429L14.7967 9.37388C14.9225 9.15752 15 8.90952 15 8.64168V1.46753C15 1.28572 14.9625 1.11342 14.9018 0.952637Z" fill="#4E4E4E"/>
<path d="M13.5326 0H1.46725C1.2233 0 0.996565 0.0655085 0.793945 0.171301L7.19992 6.57722C7.38578 6.76308 7.70861 6.76308 7.89122 6.57722L14.267 0.204494C14.0502 0.0778427 13.8014 0 13.5326 0Z" fill="#4E4E4E"/>
<path d="M0.123077 0.883057C0.0447368 1.06241 0 1.25964 0 1.46759V8.64174C0 8.90533 0.0753817 9.14938 0.197551 9.36339L4.39897 5.15895L0.123077 0.883057Z" fill="#4E4E4E"/>
<path d="M9.94556 5.90895L8.58576 7.272C8.01459 7.8367 7.08915 7.84596 6.50856 7.272L5.09334 5.85352L0.9375 10.0064C1.1023 10.0706 1.27998 10.1091 1.46722 10.1091H13.5326C13.7152 10.1091 13.8884 10.0715 14.0499 10.0102L9.94556 5.90895Z" fill="#4E4E4E"/>
</svg>
