<svg width="47" height="53" viewBox="0 0 47 53" fill="none" xmlns="http://www.w3.org/2000/svg">
<path d="M46.1712 26.4508C46.0933 26.0279 45.8373 25.6717 45.47 25.4491C37.0109 20.407 32.0468 19.3608 28.4183 18.6039C27.9508 18.5038 27.4945 18.4147 27.0604 18.3145L25.491 5.41448C25.4354 2.56511 23.098 0.25 20.2375 0.25C17.4104 0.25 15.1287 2.43155 14.984 5.23639C14.984 5.29204 14.9729 5.33656 14.9729 5.39222V12.9831L14.8504 31.5151L12.847 29.968C12.4574 29.6341 9.7416 27.4414 6.38024 27.4414C4.10965 27.4414 2.09506 28.3986 0.392116 30.2685C-0.0864881 30.7916 -0.131009 31.5708 0.280813 32.1495C0.425507 32.3499 3.87591 37.1805 9.28526 42.1001C12.4908 45.0051 15.7186 47.3313 18.8796 49.012C22.9088 51.149 26.8489 52.2509 30.5999 52.2843C30.6555 52.2843 30.7223 52.2843 30.7779 52.2843C35.8979 52.2843 39.8826 50.5925 42.6206 47.2645C48.72 39.8517 46.2714 26.9962 46.1712 26.4508ZM40.2944 45.3724C38.1574 47.9769 34.9518 49.2903 30.7779 49.2903C30.7223 49.2903 30.6778 49.2903 30.6221 49.2903C23.1759 49.2346 16.0302 44.1703 11.3555 39.9297C7.62684 36.546 4.81086 33.1401 3.51974 31.4706C4.39904 30.7916 5.34512 30.4577 6.39137 30.4577C8.80665 30.4577 10.8992 32.2497 10.9103 32.272C10.9325 32.2942 10.9659 32.3165 10.9882 32.3388L15.4292 35.7558C15.8855 36.1008 16.4866 36.1676 17.0097 35.9116C17.5217 35.6667 17.8445 35.1436 17.8556 34.576L18.0003 13.0054V5.49239C18.0003 5.48126 18.0003 5.459 18.0003 5.44787C18.0337 4.22353 19.0243 3.26632 20.2486 3.26632C21.4952 3.26632 22.497 4.27918 22.497 5.51465C22.497 5.5703 22.497 5.63708 22.5081 5.69274L24.1888 19.7058C24.2667 20.318 24.7008 20.8189 25.2907 20.9747C26.0921 21.1862 26.9157 21.3643 27.795 21.5423C31.3122 22.2769 35.6753 23.2008 43.333 27.6751C43.7114 30.2574 44.791 39.9074 40.2944 45.3724Z" fill="#EAC58D"/>
</svg>
