<svg width="62" height="60" viewBox="0 0 62 60" fill="none" xmlns="http://www.w3.org/2000/svg">
<path d="M60.9662 35.4975L60.9518 35.474C60.2967 34.4745 59.2957 33.7519 58.1408 33.4448C56.9859 33.1376 55.7583 33.2675 54.6932 33.8094L48.1292 37.1662C47.6041 36.4211 46.9065 35.8142 46.0959 35.3972V18.7364C47.1575 19.5829 48.5113 19.974 49.8608 19.824C51.2102 19.6741 52.4451 18.9953 53.2949 17.9364C53.3792 17.8313 53.4418 17.7105 53.4793 17.5812C53.5168 17.4518 53.5284 17.3163 53.5135 17.1824C53.4985 17.0485 53.4573 16.9189 53.3923 16.801C53.3272 16.6831 53.2394 16.5791 53.1341 16.4951L33.9279 1.13016C33.0219 0.398861 31.8927 0 30.7284 0C29.5641 0 28.4349 0.398861 27.5289 1.13016L8.32162 16.4951C8.21638 16.5792 8.12875 16.6832 8.06375 16.8012C7.99875 16.9191 7.95765 17.0488 7.94281 17.1826C7.92797 17.3165 7.93967 17.452 7.97725 17.5813C8.01483 17.7107 8.07755 17.8313 8.16182 17.9364C9.01098 18.9978 10.2469 19.6785 11.5978 19.8289C12.9488 19.9793 14.3041 19.5871 15.366 18.7384V35.4033C13.66 35.7721 12.0441 36.4757 10.612 37.4735L9.97591 34.4394C9.94817 34.3074 9.89461 34.1821 9.8183 34.0708C9.742 33.9595 9.64446 33.8644 9.53129 33.7909C9.41812 33.7174 9.29154 33.667 9.15883 33.6426C9.02612 33.6182 8.8899 33.6202 8.75798 33.6486L0.809163 35.3603C0.543865 35.4173 0.312024 35.5772 0.164532 35.805C0.01704 36.0328 -0.0340507 36.3097 0.0224752 36.5751L4.64734 58.6075C4.67509 58.7395 4.72862 58.8646 4.80485 58.9758C4.88109 59.0871 4.97853 59.1821 5.09159 59.2556C5.20465 59.3291 5.3311 59.3795 5.46369 59.404C5.59628 59.4285 5.7324 59.4265 5.86424 59.3983L13.812 57.6877C14.0765 57.6306 14.3076 57.4713 14.455 57.2445C14.6024 57.0176 14.654 56.7417 14.5987 56.4769L14.189 54.504L16.9045 53.9202C17.6959 53.7504 18.5107 53.7192 19.3127 53.828L32.08 55.2282C34.7325 55.5818 37.4226 54.9522 39.6426 53.4582L60.1016 39.7321C60.7704 39.2791 61.2353 38.5824 61.3968 37.791C61.5584 36.9996 61.4038 36.1764 60.9662 35.4975ZM14.0825 17.1374C13.5863 17.5345 12.9793 17.768 12.3449 17.8058C11.7106 17.8436 11.0801 17.6838 10.5403 17.3484L28.8113 2.73222C29.3545 2.29289 30.0319 2.05321 30.7304 2.05321C31.429 2.05321 32.1064 2.29289 32.6495 2.73222L50.9195 17.3484C50.3795 17.6829 49.7491 17.8422 49.115 17.8045C48.4808 17.7667 47.8739 17.5337 47.3774 17.1374L31.3701 4.33222C31.1885 4.18702 30.9629 4.10792 30.7304 4.10792C30.4979 4.10792 30.2723 4.18702 30.0907 4.33222L14.0825 17.1374ZM17.4146 17.0975L30.7309 6.4444L44.0473 17.0975V34.8184C42.9835 34.7207 41.9138 34.9275 40.963 35.4146L36.8769 37.5083V20.4931C36.8769 20.2215 36.769 19.9609 36.5769 19.7688C36.3848 19.5767 36.1243 19.4688 35.8526 19.4688H25.6093C25.3376 19.4688 25.0771 19.5767 24.885 19.7688C24.6929 19.9609 24.5849 20.2215 24.5849 20.4931V36.8087L24.2776 36.6448C22.171 35.5228 19.798 34.9975 17.4146 35.1257V17.0975ZM34.8283 38.5593L32.6936 39.6543C32.2623 39.8763 31.7837 39.9905 31.2987 39.9873C30.8137 39.9841 30.3367 39.8635 29.9084 39.6358L26.6336 37.8965V21.5175H34.8283V38.5593ZM6.43992 57.1786L2.23708 37.1488L8.17821 35.8684L12.378 55.8992L6.43992 57.1786ZM58.9616 38.0348L38.5026 51.7609C36.6887 52.9782 34.4915 53.4884 32.3269 53.1949L19.5555 51.7937C18.5276 51.6559 17.4837 51.6978 16.4702 51.9176L13.7639 52.4994L11.0638 39.6481L11.7634 39.1595C13.4342 37.9843 15.3982 37.2958 17.4371 37.1705C19.4759 37.0451 21.5096 37.488 23.3117 38.4497L28.9455 41.4407C29.6655 41.8234 30.4674 42.0261 31.2827 42.0317C32.0981 42.0372 32.9026 41.8453 33.6278 41.4725L41.8962 37.2348C42.7227 36.8124 43.6798 36.7233 44.5701 36.986C45.4604 37.2486 46.2159 37.8429 46.6808 38.6463C46.8173 38.8816 46.8557 39.161 46.7879 39.4244C46.72 39.6877 46.5513 39.9138 46.3182 40.0538L34.9205 46.8185C32.9274 48.0067 30.5536 48.3826 28.291 47.8684L18.0108 45.41L17.5355 47.4023L27.8249 49.8607C30.6022 50.4971 33.5179 50.0381 35.9653 48.5793L47.3641 41.8187C47.831 41.5384 48.2151 41.1391 48.477 40.6616C48.7388 40.1841 48.8691 39.6456 48.8545 39.1011L55.6222 35.6348C56.2351 35.3233 56.9412 35.2482 57.6059 35.4236C58.2706 35.5991 58.8476 36.013 59.2269 36.5864L59.2381 36.6028C59.3858 36.831 59.4394 37.1075 59.3879 37.3744C59.3363 37.6413 59.1836 37.878 58.9616 38.0348Z" fill="white"/>
<path d="M6.63138 38.3003L4.62646 38.7214L5.04716 40.7243L7.05207 40.3032L6.63138 38.3003Z" fill="white"/>
</svg>
