<svg width="61" height="60" viewBox="0 0 61 60" fill="none" xmlns="http://www.w3.org/2000/svg">
<path d="M32.6458 56.6924C31.996 56.9499 31.3383 57.1926 30.6647 57.4016C25.3067 55.71 20.552 52.5051 16.9738 48.173L15.2603 49.2199C19.1741 54.0418 24.4409 57.5825 30.3834 59.3866C30.5689 59.4422 30.7666 59.4422 30.952 59.3866C31.5414 59.2103 32.1109 58.9904 32.6834 58.7814C32.6638 58.6677 32.6512 58.5529 32.6458 58.4377V56.6924Z" fill="#222222"/>
<path d="M47.4304 24.1212C47.4571 24.1667 47.4789 24.2202 47.5057 24.2618V13.072C47.5058 12.8316 47.4186 12.5994 47.2602 12.4187C47.1019 12.2379 46.8832 12.1209 46.6449 12.0894C41.2095 11.376 35.9528 9.66331 31.1404 7.03775C30.995 6.95851 30.832 6.91699 30.6664 6.91699C30.5008 6.91699 30.3379 6.95851 30.1925 7.03775C25.3803 9.66315 20.124 11.3758 14.6889 12.0894C14.4501 12.1202 14.2307 12.2369 14.0718 12.4178C13.9128 12.5986 13.8251 12.8312 13.8252 13.072V28.7726C13.8307 31.3898 14.2314 33.9912 15.0138 36.4887L16.7888 35.522C16.1426 33.3303 15.8117 31.0577 15.8062 28.7726V13.9307C21.0006 13.1498 26.0247 11.4922 30.664 9.02868C35.3032 11.4922 40.3273 13.1498 45.5217 13.9307V21.1714C46.1923 22.1193 46.8381 23.094 47.4304 24.1212Z" fill="#222222"/>
<path d="M41.1069 42.705C38.5157 46.4573 34.8871 49.3731 30.6649 51.0956C27.3841 49.7578 24.4533 47.6865 22.0969 45.0406L20.3813 46.0886C23.0723 49.1951 26.4809 51.5976 30.3113 53.0876C30.5407 53.1747 30.7941 53.1747 31.0234 53.0876C36.3749 50.9991 40.8677 47.1703 43.7783 42.2177C43.1012 42.5552 42.3557 42.7331 41.5992 42.7377C41.4346 42.7351 41.2703 42.7242 41.1069 42.705Z" fill="#222222"/>
<path d="M39.067 36.2491C38.9174 36.4877 38.8021 36.7461 38.7243 37.0167C38.6233 37.3937 38.5976 37.7868 38.6486 38.1737C38.6996 38.5606 38.8263 38.9337 39.0215 39.2716C39.2167 39.6096 39.4765 39.9057 39.7861 40.1433C40.0958 40.3808 40.4492 40.555 40.8262 40.6559C41.0789 40.7225 41.3393 40.7558 41.6007 40.7549C42.1223 40.7563 42.6349 40.6196 43.0865 40.3587L49.9488 36.3967C50.5229 36.0697 50.971 35.56 51.2219 34.9489C51.4728 34.3377 51.512 33.6602 51.3332 33.0242C51.1545 32.3882 50.7681 31.8303 50.2356 31.4393C49.7031 31.0483 49.055 30.8467 48.3947 30.8666C46.9479 26.8705 44.8091 23.1603 42.0762 19.9056C42.4189 19.343 42.5642 18.6822 42.4893 18.0277C42.4143 17.3733 42.1232 16.7625 41.6622 16.292C41.2011 15.8215 40.5963 15.5181 39.9435 15.4299C39.2907 15.3417 38.6271 15.4736 38.0577 15.8048L31.1954 19.7669C30.6279 20.0936 30.1842 20.5985 29.9333 21.2032C29.6823 21.8079 29.6381 22.4786 29.8075 23.1111C29.9769 23.7435 30.3504 24.3023 30.8701 24.7007C31.3897 25.099 32.0264 25.3145 32.6811 25.3138C32.7019 25.3138 32.7218 25.3059 32.7426 25.3059C33.1091 26.3261 33.5429 27.3612 34.0302 28.3874L2.97757 45.2974C2.29094 45.6709 1.73281 46.2426 1.376 46.938C1.0192 47.6334 0.880284 48.4202 0.977389 49.1958C1.07449 49.9713 1.40311 50.6996 1.92035 51.2856C2.4376 51.8716 3.11946 52.288 3.87696 52.4807C4.37958 52.6107 4.90331 52.6379 5.41669 52.5604C5.93006 52.483 6.42247 52.3025 6.86436 52.03L37.0374 33.5896C37.6852 34.5226 38.3657 35.417 39.067 36.2491ZM48.4571 32.8338C48.6748 32.8342 48.8863 32.9063 49.059 33.039C49.2316 33.1716 49.3557 33.3575 49.4121 33.5678C49.4684 33.7781 49.454 34.0011 49.3709 34.2024C49.2878 34.4036 49.1407 34.5718 48.9523 34.6811L42.0901 38.6432C41.8623 38.774 41.5921 38.8096 41.3383 38.7422C41.149 38.6915 40.9791 38.5858 40.8499 38.4385C40.7208 38.2912 40.6382 38.1089 40.6126 37.9147C40.5871 37.7204 40.6197 37.523 40.7064 37.3473C40.793 37.1716 40.9299 37.0255 41.0995 36.9276L47.9618 32.9655C48.1123 32.8782 48.2831 32.8321 48.4571 32.8318V32.8338ZM43.9998 26.1032C45.0019 27.8249 45.8485 29.6325 46.5295 31.5045L40.5468 34.9614C39.2686 33.4334 38.1281 31.7953 37.1385 30.0663C36.1363 28.3432 35.2903 26.5339 34.6107 24.6601L40.5904 21.2071C41.8673 22.7363 43.0084 24.3739 44.0008 26.1013L43.9998 26.1032ZM31.8234 22.8385C31.692 22.611 31.6564 22.3406 31.7244 22.0869C31.7924 21.8332 31.9584 21.6168 32.1859 21.4855L39.0472 17.5234C39.1599 17.4582 39.2843 17.4159 39.4134 17.3988C39.5424 17.3817 39.6736 17.3903 39.7994 17.424C39.9251 17.4576 40.043 17.5158 40.1463 17.595C40.2495 17.6743 40.3362 17.7731 40.4012 17.8859C40.5326 18.1134 40.5682 18.3838 40.5002 18.6375C40.4322 18.8913 40.2662 19.1076 40.0387 19.239L33.1774 23.201C33.0647 23.2662 32.9403 23.3085 32.8112 23.3256C32.6821 23.3427 32.551 23.3341 32.4252 23.3005C32.2995 23.2668 32.1816 23.2087 32.0783 23.1294C31.975 23.0501 31.8884 22.9513 31.8234 22.8385ZM5.83125 50.3392C5.614 50.4735 5.37198 50.5629 5.11954 50.602C4.8671 50.641 4.60939 50.629 4.36169 50.5666C4.11399 50.5042 3.88134 50.3927 3.67755 50.2386C3.47376 50.0846 3.30298 49.8912 3.17533 49.67C3.04768 49.4487 2.96577 49.2041 2.93445 48.9506C2.90313 48.6971 2.92304 48.4398 2.99301 48.1942C3.06297 47.9485 3.18156 47.7194 3.34174 47.5204C3.50192 47.3214 3.70043 47.1566 3.9255 47.0358L34.9286 30.1544C35.0911 30.4516 35.2505 30.7587 35.4239 31.0538C35.5972 31.349 35.7775 31.6382 35.9568 31.9294L5.83125 50.3392Z" fill="#222222"/>
<path d="M11.4744 38.4149C10.4129 35.3106 9.86847 32.0531 9.86287 28.7723V8.49444C17.2431 8.31234 24.4343 6.12281 30.6637 2.16109C36.8931 6.12294 44.0843 8.31249 51.4645 8.49444V28.7723C51.4645 29.1447 51.4497 29.5142 51.4358 29.8846C51.9655 30.2772 52.41 30.7732 52.7423 31.3427C52.9504 31.7167 53.1089 32.1163 53.2138 32.5313C53.3651 31.2839 53.4425 30.0287 53.4455 28.7723V7.51581C53.4455 7.25311 53.3412 7.00117 53.1554 6.81541C52.9697 6.62966 52.7177 6.5253 52.455 6.5253C45.0892 6.52274 37.8774 4.4154 31.6691 0.451459L31.1976 0.154304C31.0388 0.05352 30.8547 0 30.6667 0C30.4786 0 30.2945 0.05352 30.1357 0.154304L29.6623 0.451459C23.453 4.41643 16.2396 6.52382 8.87235 6.5253C8.60965 6.5253 8.35771 6.62966 8.17195 6.81541C7.98619 7.00117 7.88184 7.25311 7.88184 7.51581V28.7723C7.88827 32.3834 8.50789 35.9672 9.71429 39.3708L11.4744 38.4149Z" fill="#222222"/>
<path d="M50.9335 38.112L49.7449 38.8054C48.6242 41.9633 46.9907 44.915 44.9102 47.5417H47.3627C49.6917 44.3037 51.4042 40.6642 52.4143 36.8055C52.0142 37.3368 51.5105 37.7813 50.9335 38.112Z" fill="#222222"/>
<path d="M57.4083 53.4853H56.4178V52.4947C56.4178 51.7066 56.1047 50.9508 55.5475 50.3935C54.9902 49.8363 54.2344 49.5232 53.4463 49.5232H41.5601C40.772 49.5232 40.0161 49.8363 39.4589 50.3935C38.9016 50.9508 38.5885 51.7066 38.5885 52.4947V53.4853H37.598C36.8099 53.4853 36.0541 53.7983 35.4968 54.3556C34.9395 54.9129 34.6265 55.6687 34.6265 56.4568V58.4378C34.6265 58.7005 34.7308 58.9525 34.9166 59.1382C35.1023 59.324 35.3543 59.4283 35.617 59.4283H59.3894C59.6521 59.4283 59.904 59.324 60.0898 59.1382C60.2755 58.9525 60.3799 58.7005 60.3799 58.4378V56.4568C60.3799 55.6687 60.0668 54.9129 59.5095 54.3556C58.9522 53.7983 58.1964 53.4853 57.4083 53.4853ZM40.5696 52.4947C40.5696 52.232 40.6739 51.9801 40.8597 51.7943C41.0454 51.6086 41.2974 51.5042 41.5601 51.5042H53.4463C53.709 51.5042 53.9609 51.6086 54.1467 51.7943C54.3324 51.9801 54.4368 52.232 54.4368 52.4947V53.4853H40.5696V52.4947ZM58.3988 57.4473H36.6075V56.4568C36.6075 56.1941 36.7119 55.9422 36.8976 55.7564C37.0834 55.5706 37.3353 55.4663 37.598 55.4663H57.4083C57.671 55.4663 57.923 55.5706 58.1087 55.7564C58.2945 55.9422 58.3988 56.1941 58.3988 56.4568V57.4473Z" fill="#222222"/>
</svg>
