<svg width="42" height="55" viewBox="0 0 42 55" fill="none" xmlns="http://www.w3.org/2000/svg">
<path fill-rule="evenodd" clip-rule="evenodd" d="M38.0971 23.913H37.2902V16.7641C37.2902 7.52395 29.7776 0 20.5261 0C11.2859 0 3.76198 7.51259 3.76198 16.7641C3.76198 16.8435 3.76789 16.9214 3.7793 16.9974L3.7793 23.913H2.96639C1.32976 23.913 0 25.2427 0 26.8794V45.9848C0 50.8833 3.98929 54.8726 8.88781 54.8726H32.1757C37.0742 54.8726 41.0635 50.8833 41.0635 45.9848V26.8794C41.0635 25.2427 39.7337 23.913 38.0971 23.913ZM6.84798 23.913H34.2215V16.7641C34.2215 9.20604 28.0728 3.06868 20.5261 3.06868C13.2008 3.06868 7.21004 8.8445 6.84798 16.0709L6.84798 23.913ZM37.9948 45.9848C37.9948 49.1898 35.3921 51.8039 32.1757 51.8039H8.89918C5.69411 51.8039 3.08005 49.2012 3.08005 45.9848V26.9817H37.9948V45.9848ZM20.538 45.3591C23.7089 45.3591 26.2775 42.7791 26.2775 39.6195C26.2775 36.4485 23.6976 33.8799 20.538 33.8799C17.367 33.8799 14.7984 36.4599 14.7984 39.6195C14.7984 42.7791 17.367 45.3591 20.538 45.3591ZM20.538 36.9372C22.0155 36.9372 23.2088 38.142 23.2088 39.6081C23.2088 41.0743 22.0155 42.2904 20.538 42.2904C19.0604 42.2904 17.8671 41.0856 17.8671 39.6195C17.8671 38.1534 19.0604 36.9372 20.538 36.9372Z" fill="#EAC58D"/>
</svg>
