<svg width="47" height="55" viewBox="0 0 47 55" fill="none" xmlns="http://www.w3.org/2000/svg">
<path d="M23.1382 29.5669C23.195 29.5669 23.2518 29.5669 23.32 29.5669C23.3427 29.5669 23.3655 29.5669 23.3882 29.5669C23.4223 29.5669 23.4677 29.5669 23.5018 29.5669C26.8312 29.5101 29.5243 28.3397 31.5128 26.1011C35.8877 21.1695 35.1604 12.7154 35.0809 11.9086C34.7968 5.85202 31.9333 2.95442 29.5697 1.6022C27.8085 0.590883 25.7517 0.0454526 23.4564 0H23.3768C23.3655 0 23.3427 0 23.3314 0H23.2632C22.0019 0 19.5247 0.204537 17.1498 1.55675C14.7636 2.90896 11.8546 5.80657 11.5705 11.9086C11.491 12.7154 10.7637 21.1695 15.1386 26.1011C17.1157 28.3397 19.8088 29.5101 23.1382 29.5669ZM14.6045 12.1926C14.6045 12.1586 14.6159 12.1245 14.6159 12.1017C14.9908 3.95437 20.7747 3.07941 23.2518 3.07941H23.2973C23.32 3.07941 23.3541 3.07941 23.3882 3.07941C26.4562 3.14759 31.6719 4.39753 32.0242 12.1017C32.0242 12.1358 32.0242 12.1699 32.0355 12.1926C32.0469 12.2722 32.8423 19.9991 29.2289 24.0671C27.7971 25.6807 25.8881 26.4761 23.3768 26.4988C23.3541 26.4988 23.3427 26.4988 23.32 26.4988C23.2973 26.4988 23.2859 26.4988 23.2632 26.4988C20.7633 26.4761 18.8429 25.6807 17.4225 24.0671C13.8204 20.0219 14.5931 12.2608 14.6045 12.1926Z" fill="#EAC58D"/>
<path d="M46.6715 43.5892C46.6715 43.5779 46.6715 43.5665 46.6715 43.5551C46.6715 43.4642 46.6601 43.3733 46.6601 43.2711C46.592 41.0212 46.4442 35.76 41.5126 34.0783C41.4786 34.0669 41.4331 34.0556 41.399 34.0442C36.2742 32.7374 32.0131 29.783 31.9676 29.7489C31.2745 29.2603 30.32 29.4308 29.8313 30.1239C29.3427 30.8171 29.5132 31.7716 30.2063 32.2602C30.3995 32.3965 34.922 35.5441 40.5809 36.9986C43.2285 37.9417 43.5239 40.7712 43.6035 43.362C43.6035 43.4642 43.6035 43.5551 43.6148 43.646C43.6262 44.6687 43.558 46.2482 43.3762 47.1573C41.5354 48.2027 34.3198 51.8161 23.343 51.8161C12.4116 51.8161 5.15059 48.1913 3.2984 47.1459C3.11659 46.2368 3.03705 44.6574 3.05978 43.6347C3.05978 43.5438 3.07114 43.4529 3.07114 43.3506C3.15068 40.7598 3.44612 37.9304 6.09374 36.9872C11.7526 35.5328 16.2751 32.3738 16.4683 32.2488C17.1614 31.7602 17.3319 30.8057 16.8433 30.1125C16.3547 29.4194 15.4001 29.2489 14.707 29.7376C14.6615 29.7717 10.4231 32.7261 5.27559 34.0328C5.23014 34.0442 5.19605 34.0556 5.16196 34.0669C0.230356 35.76 0.0826349 41.0212 0.014456 43.2597C0.014456 43.362 0.0144558 43.4529 0.00309264 43.5438C0.00309264 43.5551 0.00309264 43.5665 0.00309264 43.5779C-0.0082705 44.1687 -0.0196334 47.2027 0.582613 48.7254C0.696244 49.0208 0.900781 49.2708 1.1735 49.4412C1.51439 49.6685 9.68449 54.8728 23.3543 54.8728C37.0242 54.8728 45.1943 49.6571 45.5352 49.4412C45.7965 49.2708 46.0124 49.0208 46.1261 48.7254C46.6942 47.2141 46.6829 44.1801 46.6715 43.5892Z" fill="#EAC58D"/>
</svg>
