<svg width="11" height="11" viewBox="0 0 11 11" fill="none" xmlns="http://www.w3.org/2000/svg">
<path d="M5.70097 1.61182C3.60846 1.61182 1.91211 3.17474 1.91211 5.10263C1.91211 6.11927 2.38397 7.03424 3.13672 7.67225L3.23595 9.07843C3.23886 9.11946 3.26264 9.15618 3.299 9.17552C3.33536 9.19485 3.37906 9.19415 3.41472 9.17369L4.65792 8.45944C4.98931 8.54671 5.3392 8.59348 5.70097 8.59348C7.79348 8.59348 9.48983 7.03056 9.48983 5.10263C9.48979 3.1747 7.79348 1.61178 5.70097 1.61182Z" fill="#EAC58D"/>
<path d="M2.81307 10.3355L2.62646 9.7094L2.88665 9.63184L2.97698 9.93496L3.2539 9.78212L3.38508 10.0198L2.81307 10.3355Z" fill="#EAC58D"/>
<path d="M3.72974 9.82925L3.59856 9.59152L4.44617 9.12385L4.4971 9.13583C4.51896 9.14103 4.54098 9.14603 4.563 9.15087L4.51683 9.36013L4.53157 9.38683L4.50801 9.39983L4.50443 9.41602C4.49828 9.41468 4.49221 9.4133 4.48607 9.41197L3.72974 9.82925ZM5.65491 9.54078C5.40288 9.54078 5.14967 9.52301 4.90237 9.48803L4.94042 9.21918C5.25441 9.26365 5.57963 9.27858 5.89757 9.26358L5.91041 9.53475C5.82591 9.53873 5.73992 9.54078 5.65491 9.54078ZM6.31308 9.50052L6.27987 9.23108C6.59824 9.1918 6.91266 9.12192 7.21437 9.02332L7.29871 9.28142C6.98038 9.38542 6.64874 9.45912 6.31308 9.50052ZM2.51118 9.32365L2.22984 8.37946L2.49003 8.30189L2.77137 9.24609L2.51118 9.32365ZM7.67801 9.14079L7.57367 8.8901C7.86978 8.76684 8.153 8.61408 8.41555 8.4361L8.56792 8.66088C8.29029 8.84909 7.99091 9.01052 7.67801 9.14079ZM8.89373 8.41972L8.72332 8.20838C8.97362 8.00661 9.20084 7.77971 9.39866 7.53402L9.61012 7.70432C9.40012 7.96513 9.15908 8.20582 8.89373 8.41972ZM2.06932 8.1112C1.82556 7.8724 1.60946 7.60891 1.42703 7.32804L1.65476 7.18016C1.82635 7.44441 2.02973 7.69238 2.25931 7.91731L2.06932 8.1112ZM9.85053 7.37716L9.62477 7.22633C9.80279 6.95984 9.94885 6.67512 10.059 6.38019L10.3133 6.47508C10.1959 6.78967 10.0402 7.09319 9.85053 7.37716ZM1.22152 6.97749C1.06262 6.67551 0.940225 6.35671 0.857659 6.03003L1.12092 5.9635C1.1982 6.26946 1.31291 6.56805 1.46182 6.85104L1.22152 6.97749ZM10.4371 6.08778L10.1748 6.01754C10.2568 5.71147 10.3017 5.39519 10.3083 5.07741L10.5798 5.08308C10.5726 5.42268 10.5246 5.76067 10.4371 6.08778ZM0.777102 5.63103C0.745194 5.4213 0.729004 5.20678 0.729004 4.99335C0.729004 4.86769 0.734637 4.74077 0.745667 4.61625L1.01613 4.64024C1.00577 4.75688 1.00049 4.87565 1.00049 4.99335C1.00049 5.19315 1.01562 5.39397 1.04548 5.59022L0.777102 5.63103ZM10.2982 4.69673C10.2746 4.38045 10.2127 4.06688 10.1143 3.76475L10.3724 3.68057C10.4776 4.00346 10.5438 4.33857 10.569 4.6766L10.2982 4.69673ZM1.06809 4.26322L0.801249 4.21323C0.86337 3.88147 0.965948 3.55581 1.1061 3.24528L1.35357 3.35696C1.22231 3.64775 1.12627 3.95269 1.06809 4.26322ZM9.97903 3.40852C9.85356 3.11986 9.69288 2.84289 9.50148 2.58539L9.71939 2.4234C9.92313 2.69753 10.0942 2.99254 10.228 3.3002L9.97903 3.40852ZM1.52642 3.01716L1.29042 2.88299C1.45599 2.59173 1.65669 2.31618 1.8869 2.06399L2.0874 2.24705C1.87082 2.4843 1.68202 2.74343 1.52642 3.01716ZM9.2604 2.28927C9.05063 2.05355 8.81294 1.83776 8.55382 1.64797L8.71422 1.42899C8.98879 1.63005 9.24078 1.8588 9.46323 2.10882L9.2604 2.28927ZM2.35716 1.97603L2.17308 1.77647C2.41932 1.54933 2.69215 1.34579 2.98405 1.1716L3.12318 1.4048C2.84736 1.56934 2.58961 1.76154 2.35716 1.97603ZM8.236 1.43466C7.96562 1.26882 7.67589 1.12886 7.37477 1.0188L7.46798 0.763813C7.78607 0.88006 8.09222 1.02794 8.37797 1.20323L8.236 1.43466ZM3.45967 1.2219L3.33976 0.978383C3.64056 0.830268 3.95881 0.710949 4.28568 0.623853L4.3556 0.886205C4.04598 0.968692 3.74451 1.08167 3.45967 1.2219ZM7.00992 0.90141C6.70412 0.816087 6.38694 0.759717 6.06719 0.733876L6.08901 0.463252C6.42601 0.490432 6.76045 0.549875 7.08292 0.639886L7.00992 0.90141ZM4.72967 0.801827L4.68019 0.534866C4.99895 0.475778 5.32686 0.445801 5.65491 0.445801L5.68509 0.44588L5.68406 0.71737L5.65495 0.717291C5.34336 0.717331 5.03208 0.745811 4.72967 0.801827Z" fill="#EAC58D"/>
</svg>
