<svg width="9" height="9" viewBox="0 0 9 9" fill="none" xmlns="http://www.w3.org/2000/svg">
<path fill-rule="evenodd" clip-rule="evenodd" d="M1.95676 0.602766C2.00462 0.619141 2.07844 0.657356 2.12083 0.684662C2.38056 0.856666 3.10378 1.7808 3.34031 2.24219C3.47564 2.50564 3.52075 2.70085 3.47839 2.84554C3.43461 3.00116 3.36218 3.08307 3.03816 3.3438C2.90828 3.44889 2.7866 3.55674 2.76748 3.58541C2.71826 3.65639 2.6786 3.79562 2.6786 3.89391C2.67998 4.12187 2.82762 4.53549 3.02176 4.85355C3.17213 5.10062 3.44145 5.4173 3.70805 5.66029C4.02112 5.94696 4.29727 6.14214 4.60898 6.29641C5.00955 6.4957 5.25427 6.54621 5.43337 6.46295C5.47848 6.44247 5.52632 6.41516 5.54138 6.40289C5.55503 6.3906 5.66031 6.26228 5.77515 6.12033C5.99661 5.84184 6.04719 5.7968 6.19895 5.74493C6.39172 5.67941 6.58859 5.69714 6.78681 5.79816C6.9372 5.87598 7.26531 6.07937 7.47721 6.22679C7.75609 6.42199 8.35216 6.90795 8.43284 7.00489C8.57501 7.17961 8.59963 7.40346 8.50391 7.65056C8.40274 7.91126 8.00902 8.39997 7.73422 8.60882C7.48541 8.7972 7.30906 8.86953 7.07664 8.88046C6.88526 8.89001 6.80596 8.87363 6.56124 8.77262C4.6418 7.98225 3.10925 6.80286 1.8925 5.18252C1.2568 4.33619 0.77283 3.45846 0.441974 2.54797C0.249224 2.01697 0.239661 1.78627 0.398227 1.51462C0.466598 1.39997 0.757793 1.11603 0.969693 0.957688C1.32242 0.695589 1.4851 0.598665 1.61498 0.571372C1.70384 0.552257 1.85832 0.567271 1.95676 0.602766Z" fill="#EAC68F"/>
<path fill-rule="evenodd" clip-rule="evenodd" d="M5.17533 1.44562C6.0052 1.5671 6.64773 1.95206 7.06881 2.57725C7.30533 2.92943 7.45297 3.34304 7.50356 3.78668C7.52132 3.94913 7.52132 4.24535 7.50219 4.29449C7.48441 4.3409 7.42699 4.4037 7.37776 4.42962C7.32445 4.45693 7.211 4.45421 7.1481 4.42143C7.04282 4.3682 7.01139 4.28356 7.01139 4.05424C7.01139 3.70069 6.91978 3.32803 6.76121 3.03863C6.58075 2.70829 6.31827 2.43528 5.99836 2.24553C5.72357 2.08173 5.31753 1.96024 4.94704 1.93022C4.81305 1.91929 4.73922 1.89199 4.68864 1.83329C4.61073 1.74456 4.60251 1.62443 4.66813 1.52479C4.73922 1.41422 4.84859 1.39647 5.17533 1.44562Z" fill="#EAC68F"/>
<path fill-rule="evenodd" clip-rule="evenodd" d="M5.46873 2.47642C5.73805 2.53375 5.9445 2.63613 6.12085 2.8013C6.34779 3.0156 6.47221 3.27497 6.52688 3.64763C6.56379 3.89061 6.54876 3.98616 6.46263 4.06534C6.38197 4.13905 6.23297 4.14178 6.14272 4.07216C6.0771 4.02302 6.05659 3.97115 6.04155 3.83056C6.02379 3.64354 5.99097 3.51249 5.93493 3.391C5.81462 3.13301 5.60272 2.99923 5.24454 2.95555C5.07636 2.93507 5.02578 2.91596 4.9711 2.85181C4.8713 2.73305 4.90957 2.54057 5.04765 2.46959C5.09962 2.44365 5.12149 2.44092 5.23631 2.44775C5.30741 2.45184 5.41269 2.46412 5.46873 2.47642Z" fill="#EAC68F"/>
</svg>
