<svg width="11" height="11" viewBox="0 0 11 11" fill="none" xmlns="http://www.w3.org/2000/svg">
<path d="M9.98189 7.73823V9.09309C9.9824 9.21887 9.95664 9.34337 9.90625 9.45861C9.85586 9.57385 9.78196 9.6773 9.68927 9.76233C9.59659 9.84736 9.48717 9.9121 9.36802 9.95239C9.24887 9.99269 9.12262 10.0077 8.99736 9.99633C7.60764 9.84533 6.27273 9.37045 5.09987 8.60986C4.00867 7.91647 3.08353 6.99133 2.39014 5.90013C1.62689 4.72194 1.15191 3.38054 1.00367 1.98458C0.99238 1.85969 1.00722 1.73382 1.04725 1.61498C1.08727 1.49614 1.1516 1.38694 1.23614 1.29433C1.32069 1.20172 1.42359 1.12772 1.53829 1.07706C1.653 1.02639 1.77699 1.00016 1.90239 1.00004H3.25725C3.47643 0.997887 3.68891 1.0755 3.85509 1.21842C4.02128 1.36133 4.12982 1.5598 4.1605 1.77683C4.21768 2.21042 4.32373 2.63614 4.47663 3.04589C4.53739 3.20753 4.55054 3.38321 4.51452 3.5521C4.47851 3.72099 4.39483 3.87602 4.2734 3.99881L3.69984 4.57237C4.34275 5.70302 5.27891 6.63918 6.40957 7.28209L6.98313 6.70853C7.10592 6.58711 7.26094 6.50343 7.42983 6.46741C7.59872 6.43139 7.7744 6.44454 7.93605 6.5053C8.34579 6.6582 8.77152 6.76425 9.2051 6.82144C9.42448 6.85239 9.62484 6.96289 9.76806 7.13193C9.91129 7.30096 9.98739 7.51674 9.98189 7.73823Z" stroke="#EAC58D" stroke-linecap="round" stroke-linejoin="round"/>
</svg>
