<svg width="14" height="17" viewBox="0 0 14 17" fill="none" xmlns="http://www.w3.org/2000/svg">
<path fill-rule="evenodd" clip-rule="evenodd" d="M6.95455 17C6.95455 17 13.9091 12.3636 13.9091 6.95455C13.9091 5.11009 13.1764 3.34117 11.8722 2.03694C10.5679 0.732709 8.79901 0 6.95455 0C5.11009 0 3.34117 0.732709 2.03694 2.03694C0.732709 3.34117 0 5.11009 0 6.95455C0 12.3636 6.95455 17 6.95455 17ZM9.27432 6.95351C9.27432 8.23381 8.23643 9.2717 6.95613 9.2717C5.67584 9.2717 4.63795 8.23381 4.63795 6.95351C4.63795 5.67322 5.67584 4.63533 6.95613 4.63533C8.23643 4.63533 9.27432 5.67322 9.27432 6.95351Z" fill="#EAC58D"/>
</svg>
