<svg width="11" height="16" viewBox="0 0 11 16" fill="none" xmlns="http://www.w3.org/2000/svg">
<path d="M5.5 0C2.46728 0 0 2.46728 0 5.49997C0 9.26363 4.92196 14.7889 5.13152 15.0223C5.32835 15.2415 5.67201 15.2411 5.86848 15.0223C6.07804 14.7889 11 9.26363 11 5.49997C10.9999 2.46728 8.53269 0 5.5 0ZM5.5 8.26716C3.97416 8.26716 2.73284 7.0258 2.73284 5.49997C2.73284 3.97414 3.97419 2.73281 5.5 2.73281C7.02581 2.73281 8.26713 3.97416 8.26713 5.5C8.26713 7.02584 7.02581 8.26716 5.5 8.26716Z" fill="#4E4E4E"/>
</svg>
