<svg width="55" height="73" viewBox="0 0 55 73" fill="none" xmlns="http://www.w3.org/2000/svg">
<path opacity="0.1" d="M22.7 47.7C22.7 44.2333 23.4667 41.3667 25 39.1C26.6 36.8333 28.9 34.3333 31.9 31.6C34.1 29.6 35.7 27.9333 36.7 26.6C37.7667 25.2 38.3 23.6333 38.3 21.9C38.3 19.4333 37.3 17.5 35.3 16.1C33.3667 14.6333 30.7667 13.9 27.5 13.9C24.3667 13.9 21.5667 14.5667 19.1 15.9C16.7 17.1667 14.6667 18.9667 13 21.3L0.9 14.2C3.7 9.93333 7.46667 6.63333 12.2 4.3C17 1.96666 22.6667 0.799999 29.2 0.799999C36.8667 0.799999 43 2.43333 47.6 5.7C52.2667 8.96666 54.6 13.5 54.6 19.3C54.6 22.0333 54.1333 24.4333 53.2 26.5C52.3333 28.5667 51.2333 30.3333 49.9 31.8C48.6333 33.2 46.9667 34.8333 44.9 36.7C42.4333 38.9 40.6333 40.7667 39.5 42.3C38.3667 43.7667 37.8 45.5667 37.8 47.7H22.7ZM30.3 72.8C27.5667 72.8 25.2667 71.9333 23.4 70.2C21.6 68.4 20.7 66.2333 20.7 63.7C20.7 61.1667 21.6 59.0667 23.4 57.4C25.2 55.6667 27.5 54.8 30.3 54.8C33.1 54.8 35.4 55.6667 37.2 57.4C39 59.0667 39.9 61.1667 39.9 63.7C39.9 66.2333 38.9667 68.4 37.1 70.2C35.3 71.9333 33.0333 72.8 30.3 72.8Z" fill="#222222"/>
</svg>
