<svg width="22" height="25" viewBox="0 0 22 25" fill="none" xmlns="http://www.w3.org/2000/svg">
<path d="M11.3325 0C5.48702 0 0.749023 4.73799 0.749023 10.5834C0.749023 14.5823 2.96562 18.0579 6.23548 19.8588L6.11101 24.2327L11.1047 21.155C11.1801 21.1567 11.2554 21.1669 11.3325 21.1669C17.1779 21.1669 21.9159 16.4289 21.9159 10.5834C21.9159 4.73799 17.1779 0 11.3325 0ZM10.8575 16.9487C9.91258 16.9487 9.26911 16.2528 9.26911 15.3248C9.26911 14.3774 9.92867 13.6992 10.8575 13.6992C11.8227 13.6992 12.4475 14.3774 12.4645 15.3248C12.4653 16.2502 11.8235 16.9487 10.8575 16.9487ZM13.0173 10.3066C12.3578 11.0389 12.0894 11.7341 12.108 12.5401V12.8593H9.73309L9.71446 12.3962C9.66112 11.4868 9.96423 10.5563 10.7694 9.59367C11.3392 8.91379 11.8049 8.34313 11.8049 7.73607C11.8049 7.11207 11.3926 6.70143 10.4993 6.66672C9.91258 6.66672 9.1963 6.87923 8.73486 7.20181L8.12695 5.25362C8.76957 4.87939 9.83892 4.52463 11.1072 4.52463C13.4652 4.52463 14.5346 5.82682 14.5346 7.30934C14.5354 8.66402 13.6972 9.55642 13.0173 10.3066Z" fill="#EAC58D"/>
</svg>
