<svg width="48" height="49" viewBox="0 0 48 49" fill="none" xmlns="http://www.w3.org/2000/svg">
<path d="M46.8844 45.6611L35.3888 34.1655C38.4725 30.6203 40.3395 25.9948 40.3395 20.9393C40.3395 9.81077 31.2877 0.769531 20.1697 0.769531C9.04124 0.769531 0 9.82126 0 20.9393C0 32.0573 9.05173 41.109 20.1697 41.109C25.2253 41.109 29.8508 39.242 33.396 36.1583L44.8915 47.6539C45.1642 47.9266 45.5313 48.0735 45.888 48.0735C46.2446 48.0735 46.6117 47.9371 46.8844 47.6539C47.4298 47.1085 47.4298 46.2065 46.8844 45.6611ZM2.82145 20.9393C2.82145 11.3736 10.6041 3.60147 20.1592 3.60147C29.7249 3.60147 37.497 11.3841 37.497 20.9393C37.497 30.4944 29.7249 38.2875 20.1592 38.2875C10.6041 38.2875 2.82145 30.5049 2.82145 20.9393Z" fill="#EAC58D"/>
</svg>
