<svg width="60" height="60" viewBox="0 0 60 60" fill="none" xmlns="http://www.w3.org/2000/svg">
<path d="M55.0533 0H24.3875C23.0762 0.00157074 21.819 0.52318 20.8918 1.45041C19.9646 2.37764 19.443 3.63479 19.4414 4.94609V8.94451C19.7678 8.92473 20.0943 8.90297 20.4306 8.90297C20.767 8.90297 21.0934 8.92473 21.4198 8.94451V4.94609C21.4198 4.15902 21.7325 3.40419 22.289 2.84764C22.8456 2.2911 23.6004 1.97844 24.3875 1.97844H55.0533C55.8403 1.97844 56.5952 2.2911 57.1517 2.84764C57.7083 3.40419 58.0209 4.15902 58.0209 4.94609V13.8491C58.0209 14.6361 57.7083 15.391 57.1517 15.9475C56.5952 16.5041 55.8403 16.8167 55.0533 16.8167H47.1395C46.9305 16.8167 46.7269 16.8828 46.5579 17.0057L37.8785 23.3179L39.1961 18.0463C39.2326 17.9005 39.2354 17.7482 39.2043 17.6011C39.1732 17.454 39.1089 17.3159 39.0164 17.1974C38.9239 17.0788 38.8056 16.9829 38.6704 16.917C38.5353 16.851 38.3869 16.8167 38.2366 16.8167H32.5159C32.7459 17.4611 32.9245 18.1226 33.0501 18.7952H36.9694L35.2986 25.4793C35.2492 25.6763 35.2617 25.8838 35.3343 26.0735C35.4069 26.2632 35.5362 26.426 35.7045 26.5397C35.8729 26.6533 36.0722 26.7124 36.2753 26.7089C36.4784 26.7054 36.6755 26.6394 36.8398 26.52L47.461 18.7952H55.0533C56.3646 18.7936 57.6217 18.272 58.549 17.3447C59.4762 16.4175 59.9978 15.1604 59.9994 13.8491V4.94609C59.9978 3.63479 59.4762 2.37764 58.549 1.45041C57.6217 0.52318 56.3646 0.00157074 55.0533 0Z" fill="#222222"/>
<path d="M34.6162 40.8068C32.3805 40.1736 30.2367 39.2522 28.2388 38.0657L26.3662 36.1921V33.8556C29.5057 30.5093 31.2714 26.1044 31.3123 21.5161C31.3123 15.0565 27.0418 10.882 20.4309 10.882C13.8199 10.882 9.54945 15.0565 9.54945 21.5161C9.59029 26.1044 11.356 30.5093 14.4955 33.8556V36.1921L12.623 38.0657C10.625 39.2522 8.48121 40.1736 6.24546 40.8068C2.94938 41.8445 0.646484 45.4393 0.646484 49.5475V58.3644C0.646484 58.6268 0.750705 58.8784 0.93622 59.0639C1.12173 59.2494 1.37335 59.3537 1.6357 59.3537H39.226C39.4884 59.3537 39.74 59.2494 39.9255 59.0639C40.111 58.8784 40.2152 58.6268 40.2152 58.3644V49.5475C40.2152 45.4393 37.9123 41.8445 34.6162 40.8068ZM15.6381 37.8471L18.8362 39.7661L16.6718 41.9306L14.7537 38.7334L15.6381 37.8471ZM20.3082 45.5046H20.5535L22.1363 57.3752H18.7254L20.3082 45.5046ZM20.7504 43.5262H20.1113L19.4713 41.9276L20.4309 40.968L21.3904 41.9276L20.7504 43.5262ZM22.0255 39.7671L25.2236 37.8481L26.1139 38.7383L24.1899 41.9306L22.0255 39.7671ZM20.4309 12.8604C26.0061 12.8604 29.3338 16.0961 29.3338 21.5161C29.3338 21.5922 29.3259 21.6714 29.3239 21.7475C28.1721 21.5338 27.1071 20.9899 26.2587 20.1821C25.4102 19.3742 24.8149 18.3372 24.545 17.1971C24.5096 16.9841 24.4054 16.7886 24.2484 16.6403C24.0914 16.4921 23.8902 16.3992 23.6755 16.376C23.4608 16.3528 23.2445 16.4005 23.0594 16.5118C22.8744 16.6231 22.7308 16.7919 22.6507 16.9924C21.7109 19.3408 15.6549 21.521 11.5714 22.4964C11.5487 22.166 11.5318 21.8376 11.5318 21.5131C11.5279 16.0961 14.8556 12.8604 20.4309 12.8604ZM11.8385 24.4679C13.9821 23.9634 20.3705 22.2738 23.2699 19.4525C23.8613 20.5661 24.6996 21.5297 25.7206 22.2695C26.7416 23.0093 27.9183 23.5058 29.1607 23.721C28.3515 29.0905 24.7626 34.6232 20.4309 34.6232C16.2999 34.6232 12.8525 29.591 11.8385 24.4679ZM20.4309 36.6016C21.8343 36.58 23.2041 36.1691 24.3877 35.4146V36.0407L20.4309 38.4149L16.474 36.0407V35.4146C17.6576 36.1691 19.0274 36.58 20.4309 36.6016ZM2.62492 49.5475C2.62492 46.294 4.35803 43.4757 6.84097 42.6932C9.05875 42.0418 11.1953 41.1405 13.2096 40.0065L15.6272 44.0356C15.7046 44.1644 15.8103 44.2738 15.9364 44.3556C16.0624 44.4374 16.2054 44.4895 16.3545 44.5078C16.5036 44.5261 16.6549 44.5102 16.797 44.4613C16.939 44.4124 17.0681 44.3318 17.1743 44.2255L17.9509 43.449L18.4277 44.6361L16.7282 57.3752H9.54945V51.4399H7.57101V57.3752H2.62492V49.5475ZM38.2368 57.3752H33.2907V51.4399H31.3123V57.3752H24.1335L22.435 44.64L22.9118 43.453L23.6883 44.2295C23.7946 44.3357 23.9237 44.4163 24.0657 44.4652C24.2078 44.5141 24.3591 44.53 24.5082 44.5117C24.6573 44.4934 24.8003 44.4414 24.9263 44.3596C25.0524 44.2778 25.1581 44.1683 25.2355 44.0396L27.6521 40.0065C29.666 41.1406 31.8022 42.0419 34.0197 42.6932C36.5037 43.4757 38.2368 46.296 38.2368 49.5475V57.3752Z" fill="#222222"/>
</svg>
