<svg width="10" height="10" viewBox="0 0 10 10" fill="none" xmlns="http://www.w3.org/2000/svg">
<path fill-rule="evenodd" clip-rule="evenodd" d="M4.8309 8.9914H4.83275C7.30183 8.99039 9.30996 6.98177 9.31095 4.51322C9.31143 3.31666 8.84605 2.19154 8.00056 1.3451C7.15508 0.498624 6.03069 0.0322553 4.83271 0.0317383C2.36435 0.0317383 0.355423 2.04056 0.35444 4.50968C0.354104 5.29895 0.560316 6.06933 0.95221 6.74849L0.316895 9.06906L2.69087 8.44632C3.34496 8.80309 4.08141 8.99114 4.8309 8.9914ZM2.9381 7.71658L2.80218 7.63592L1.39343 8.00546L1.76945 6.63194L1.68095 6.49111C1.30836 5.8985 1.11157 5.21356 1.11186 4.51025C1.11268 2.45804 2.78243 0.788437 4.83554 0.788437C5.82972 0.788781 6.76427 1.17643 7.46701 1.87999C8.16975 2.58355 8.55654 3.5187 8.55615 4.51327C8.55533 6.56564 6.8856 8.23541 4.83408 8.23541H4.83257C4.16466 8.23515 3.50958 8.05571 2.9381 7.71658Z" fill="#EAC58D"/>
<path fill-rule="evenodd" clip-rule="evenodd" d="M7.08922 5.57791C7.06126 5.53124 6.98668 5.50324 6.87478 5.44721C6.76289 5.3912 6.21276 5.12054 6.11017 5.08316C6.00762 5.04583 5.933 5.02718 5.85841 5.13916C5.78383 5.25117 5.56939 5.50324 5.50411 5.57791C5.43884 5.65257 5.37356 5.66195 5.26171 5.60592C5.14981 5.54991 4.78926 5.43176 4.36186 5.05053C4.02921 4.75382 3.80465 4.38741 3.73937 4.27539C3.6741 4.16336 3.73242 4.10282 3.78843 4.04703C3.83877 3.99687 3.90034 3.9163 3.95628 3.85098C4.01222 3.78566 4.03087 3.73896 4.06817 3.66433C4.10547 3.58962 4.08682 3.5243 4.05884 3.46829C4.03087 3.41228 3.80709 2.8615 3.71385 2.63745C3.62301 2.41926 3.53077 2.44882 3.46209 2.44537C3.3969 2.4421 3.32222 2.44141 3.24763 2.44141C3.17304 2.44141 3.05181 2.46941 2.94924 2.58144C2.84668 2.69346 2.55762 2.96418 2.55762 3.51491C2.55762 4.06568 2.95856 4.59776 3.01452 4.67243C3.07046 4.74714 3.80353 5.87733 4.92602 6.36201C5.19299 6.47731 5.40139 6.54615 5.56392 6.59772C5.83196 6.6829 6.07591 6.67088 6.26868 6.64206C6.48369 6.60994 6.93071 6.37139 7.02399 6.11002C7.11719 5.8486 7.11719 5.62457 7.08922 5.57791Z" fill="#EAC58D"/>
</svg>
